<svg width="359" height="173" viewBox="0 0 359 173" fill="none" xmlns="http://www.w3.org/2000/svg">
<g filter="url(#filter0_d)">
<path fill-rule="evenodd" clip-rule="evenodd" d="M16 4C10.4772 4 6 8.47715 6 14V78.6874C6.05089 78.7218 6.1 78.7619 6.14674 78.8077L11.2191 83.7863C11.6185 84.1782 11.6185 84.8216 11.2191 85.2136L6.14674 90.1921C6.1 90.238 6.05089 90.2781 6 90.3125V155C6 160.523 10.4771 165 16 165H343C348.523 165 353 160.509 353 154.986V90.3759C352.91 90.3305 352.825 90.2696 352.746 90.1921L347.673 85.2136C347.274 84.8216 347.274 84.1782 347.673 83.7863L352.746 78.8077C352.825 78.7303 352.91 78.6694 353 78.624V14.0141C353 8.49122 348.523 4 343 4H16Z" fill="white"/>
</g>
<defs>
<filter id="filter0_d" x="0" y="0" width="359" height="173" filterUnits="userSpaceOnUse" color-interpolation-filters="sRGB">
<feFlood flood-opacity="0" result="BackgroundImageFix"/>
<feColorMatrix in="SourceAlpha" type="matrix" values="0 0 0 0 0 0 0 0 0 0 0 0 0 0 0 0 0 0 127 0"/>
<feOffset dy="2"/>
<feGaussianBlur stdDeviation="3"/>
<feColorMatrix type="matrix" values="0 0 0 0 0 0 0 0 0 0 0 0 0 0 0 0 0 0 0.15 0"/>
<feBlend mode="normal" in2="BackgroundImageFix" result="effect1_dropShadow"/>
<feBlend mode="normal" in="SourceGraphic" in2="effect1_dropShadow" result="shape"/>
</filter>
</defs>
</svg>
